<svg width="80" height="52" viewBox="0 0 80 52" fill="none" xmlns="http://www.w3.org/2000/svg">
<path d="M29.2476 0C27.9975 0 26.7327 0.0687719 25.4366 0.244184C15.0693 1.64826 3.73867 8.93342 0.324852 25.9913C0.293897 26.1688 0.293897 26.3513 0.324852 26.5288C2.27565 40.2781 13.2874 48.3647 23.8732 51.0056C29.1664 52.326 34.4155 52.3531 38.579 50.9571C42.7424 49.5601 45.9378 46.4604 46.2494 42.0651C46.2504 42.0323 46.2504 42.001 46.2494 41.9682L46.054 9.38129C46.0384 7.67673 45.2526 6.14132 44.0508 4.88655C42.849 3.63177 41.2549 2.59898 39.3607 1.80853C37.4665 1.01839 35.2697 0.47857 32.9117 0.196378C31.7327 0.0556728 30.4975 -0.00264158 29.2476 0.000954217V0ZM29.2476 3.12678C30.3687 3.11114 31.4729 3.14709 32.5208 3.27373C34.6167 3.52512 36.5487 4.02695 38.1392 4.69045C39.7299 5.35396 40.9991 6.19569 41.8035 7.03554C42.6078 7.87539 42.9216 8.67764 42.9272 9.42948L43.1226 41.8697C42.9055 44.9338 40.9406 46.8892 37.5529 48.0257C34.1655 49.1619 29.4736 49.1784 24.6549 47.9773C15.097 45.5928 5.31331 38.4948 3.45163 26.383C6.69942 10.6261 16.593 4.62269 25.8275 3.37182C26.9883 3.2147 28.1263 3.14396 29.2476 3.12754V3.12678ZM55.2389 9.18491C54.4203 9.27449 53.757 10.1007 53.8465 10.9193C53.936 11.7379 54.7622 12.4012 55.5808 12.3117L78.25 19.7145C79.0759 19.7255 79.8356 18.9772 79.8356 18.1511C79.8356 17.3251 79.0759 16.576 78.25 16.5877L55.5808 9.18491C55.5158 9.18022 55.4504 9.18022 55.3854 9.18491C55.3364 9.18335 55.2874 9.18335 55.2384 9.18491H55.2389ZM55.2389 24.428C54.4203 24.5171 53.757 25.3437 53.8465 26.1622C53.936 26.9807 54.7622 27.6443 55.5808 27.5547L78.25 34.9575C79.0759 34.9731 79.8356 34.2202 79.8356 33.3941C79.8356 32.568 79.0759 31.819 78.25 31.8307L55.5808 24.428C55.5158 24.428 55.4504 24.428 55.3854 24.428C55.3364 24.428 55.2874 24.428 55.2384 24.428H55.2389ZM55.2389 39.671C54.4203 39.7601 53.757 40.5868 53.8465 41.4052C53.936 42.2238 54.7622 42.8874 55.5808 42.7978L78.25 50.2005C79.0759 50.2161 79.8356 49.4632 79.8356 48.6371C79.8356 47.811 79.0759 47.062 78.25 47.0737L55.5808 39.671C55.5158 39.671 55.4504 39.671 55.3854 39.671C55.3364 39.671 55.2874 39.671 55.2384 39.671H55.2389Z" fill="white"/>
</svg>
