<svg width="81" height="52" viewBox="0 0 81 52" fill="none" xmlns="http://www.w3.org/2000/svg">
<path d="M29.7631 0C28.513 0 27.2482 0.0687719 25.9522 0.244184C15.5849 1.64826 4.25423 8.93342 0.840408 25.9913C0.809382 26.1692 0.809382 26.3509 0.840408 26.5288C2.79121 40.2781 13.8029 48.3647 24.3888 51.0056C29.682 52.326 34.9311 52.3531 39.0945 50.9571C43.258 49.5601 46.4534 46.4604 46.765 42.0651C46.766 42.0328 46.766 42.0005 46.765 41.9682L46.5695 9.38129C46.5539 7.67673 45.7682 6.14132 44.5664 4.88655C43.3646 3.63177 41.7704 2.59898 39.8762 1.80853C37.982 1.01839 35.7853 0.47857 33.4272 0.196378C32.2483 0.0556728 31.013 -0.00264158 29.7631 0.000954217V0ZM29.7631 3.12678C30.8842 3.11114 31.9884 3.14709 33.0364 3.27373C35.1323 3.52512 37.0643 4.02695 38.6547 4.69045C40.2455 5.35396 41.5146 6.19569 42.319 7.03554C43.1234 7.87539 43.4371 8.67764 43.4428 9.42948L43.6382 41.8697C43.421 44.9338 41.4562 46.8892 38.0685 48.0257C34.6811 49.1619 29.9892 49.1784 25.1705 47.9773C15.6126 45.5928 5.82887 38.4948 3.96719 26.383C7.21497 10.6261 17.1086 4.62269 26.343 3.37182C27.5039 3.2147 28.6419 3.14396 29.7631 3.12754V3.12678ZM55.7545 9.18491C55.5492 9.20736 55.3503 9.27005 55.1692 9.36936C54.9881 9.46867 54.8283 9.60269 54.699 9.76374C54.5697 9.92479 54.4734 10.1098 54.4156 10.308C54.3578 10.5063 54.3396 10.714 54.362 10.9193C54.3845 11.1246 54.4471 11.3234 54.5465 11.5045C54.6458 11.6856 54.7798 11.8454 54.9408 11.9747C55.1019 12.104 55.2868 12.2003 55.4851 12.2582C55.6833 12.316 55.8911 12.3341 56.0964 12.3117H78.7655C78.9727 12.3146 79.1784 12.2763 79.3706 12.1991C79.5629 12.1218 79.7378 12.0071 79.8854 11.8617C80.0329 11.7162 80.1501 11.5429 80.23 11.3517C80.31 11.1606 80.3512 10.9555 80.3512 10.7483C80.3512 10.5411 80.31 10.336 80.23 10.1449C80.1501 9.95372 80.0329 9.78039 79.8854 9.63492C79.7378 9.48946 79.5629 9.37476 79.3706 9.29751C79.1784 9.22026 78.9727 9.18198 78.7655 9.18491H56.0964C56.0313 9.18084 55.966 9.18084 55.9009 9.18491C55.852 9.18261 55.8029 9.18261 55.754 9.18491H55.7545ZM55.7545 24.428C55.3398 24.4733 54.9602 24.6814 54.699 25.0067C54.4379 25.3319 54.3167 25.7476 54.362 26.1622C54.4074 26.5769 54.6156 26.9566 54.9408 27.2177C55.2661 27.4788 55.6817 27.6001 56.0964 27.5547H78.7655C78.9727 27.5577 79.1784 27.5194 79.3706 27.4421C79.5629 27.3649 79.7378 27.2502 79.8854 27.1047C80.0329 26.9593 80.1501 26.7859 80.23 26.5948C80.31 26.4037 80.3512 26.1985 80.3512 25.9913C80.3512 25.7842 80.31 25.579 80.23 25.3879C80.1501 25.1968 80.0329 25.0234 79.8854 24.878C79.7378 24.7325 79.5629 24.6178 79.3706 24.5406C79.1784 24.4633 78.9727 24.425 78.7655 24.428H56.0964C56.0313 24.4239 55.966 24.4239 55.9009 24.428C55.852 24.4257 55.8029 24.4257 55.754 24.428H55.7545ZM55.7545 39.671C55.5492 39.6935 55.3503 39.7561 55.1692 39.8554C54.9881 39.9547 54.8283 40.0887 54.699 40.2497C54.5697 40.4108 54.4734 40.5958 54.4156 40.794C54.3578 40.9923 54.3396 41.2 54.362 41.4053C54.3845 41.6106 54.4471 41.8095 54.5465 41.9906C54.6458 42.1717 54.7798 42.3315 54.9408 42.4608C55.1019 42.5901 55.2868 42.6863 55.4851 42.7442C55.6833 42.802 55.8911 42.8202 56.0964 42.7978H78.7655C78.9727 42.8007 79.1784 42.7624 79.3706 42.6852C79.5629 42.6079 79.7378 42.4932 79.8854 42.3478C80.0329 42.2023 80.1501 42.029 80.23 41.8378C80.31 41.6467 80.3512 41.4416 80.3512 41.2344C80.3512 41.0272 80.31 40.8221 80.23 40.6309C80.1501 40.4398 80.0329 40.2665 79.8854 40.121C79.7378 39.9755 79.5629 39.8609 79.3706 39.7836C79.1784 39.7063 78.9727 39.6681 78.7655 39.671H56.0964C56.0313 39.6669 55.966 39.6669 55.9009 39.671C55.852 39.6687 55.8029 39.6687 55.754 39.671H55.7545Z" fill="#05CAAD"/>
</svg>
